<?xml version="1.0" encoding="UTF-8"?>
<!-- Generator: visioncortex VTracer 0.6.2 -->
<svg version="1.1" xmlns="http://www.w3.org/2000/svg" width="1280" height="899">
<path d="M0 0 C422.4 0 844.8 0 1280 0 C1280 296.67 1280 593.34 1280 899 C857.6 899 435.2 899 0 899 C0 602.33 0 305.66 0 0 Z " fill="#0D0F1E" transform="translate(0,0)"/>
<path d="M0 0 C1.00289062 0.23058105 2.00578125 0.46116211 3.0390625 0.69873047 C27.16522852 6.2953832 50.23773417 14.93799667 72.3125 26.125 C73.26866211 26.60646484 73.26866211 26.60646484 74.24414062 27.09765625 C75.52852773 27.74439516 76.81190221 28.39314915 78.09423828 29.04394531 C79.34188593 29.66984695 80.59536709 30.28428426 81.85498047 30.88574219 C102.82465619 40.99199819 121.94796957 55.3755339 139.42944336 70.63427734 C140.51157047 71.57527207 141.60143923 72.50741299 142.69750977 73.43212891 C148.83045419 78.6669635 154.51991499 84.33379959 160.2175293 90.03222656 C161.92543056 91.73794598 163.64118045 93.43549027 165.35742188 95.1328125 C172.02331085 101.76406957 178.21099835 108.57369763 184 116 C184.5772583 116.72864258 185.1545166 117.45728516 185.74926758 118.20800781 C196.50699596 131.85637975 206.06360153 146.06941583 214.84399414 161.05688477 C215.6818153 162.46516747 216.53755677 163.8628389 217.40405273 165.25366211 C221.32791242 171.60232913 224.52007847 178.12785752 227.5625 184.9375 C228.01818359 185.94490234 228.47386719 186.95230469 228.94335938 187.99023438 C229.85701213 190.01118748 230.76661767 192.03397529 231.67211914 194.05859375 C232.52534919 195.94859479 233.39316799 197.83211428 234.27905273 199.70703125 C237.71125922 207.00908567 240.40089539 214.46948158 242.9375 222.125 C243.26140717 223.10076996 243.26140717 223.10076996 243.59185791 224.09625244 C249.13153375 240.86735949 253.248894 257.84131809 256.25 275.25 C256.40130371 276.12253418 256.55260742 276.99506836 256.70849609 277.89404297 C259.58142972 295.73869397 260.37640326 313.57735581 260.3125 331.625 C260.31100952 332.67282654 260.30951904 333.72065308 260.3079834 334.80023193 C260.26652833 351.05587674 259.60145832 366.92590299 257 383 C256.86078125 383.92135742 256.7215625 384.84271484 256.578125 385.79199219 C249.01491764 435.32049594 229.84730395 487.07696034 199 527 C198.15912709 528.11250412 197.31930329 529.22580188 196.48046875 530.33984375 C191.16088766 537.36761279 185.64885957 544.23429075 180 551 C179.56494141 551.52674316 179.12988281 552.05348633 178.68164062 552.59619141 C168.43268874 564.98094391 157.34718568 576.67926082 145 587 C143.64648438 588.18722656 143.64648438 588.18722656 142.265625 589.3984375 C130.42892387 599.72744709 117.58057879 608.67078657 104.5625 617.4375 C103.51799683 618.14507446 103.51799683 618.14507446 102.45239258 618.86694336 C96.82355226 622.61088766 90.9618843 625.82082582 85 629 C83.52164673 629.80425415 83.52164673 629.80425415 82.01342773 630.62475586 C5.63963859 672.09000214 -88.22290767 683.07706898 -171.97436523 658.41870117 C-189.47851649 653.13854909 -206.58245758 647.09733993 -223 639 C-224.32125811 638.365143 -225.64286097 637.73100287 -226.96484375 637.09765625 C-233.01694595 634.16567518 -238.86191594 630.99361152 -244.58203125 627.45703125 C-247.13593041 625.9180904 -249.73979754 624.51966493 -252.375 623.125 C-258.52041143 619.79803112 -264.26081471 615.97983059 -270 612 C-270.82588623 611.42741455 -270.82588623 611.42741455 -271.66845703 610.84326172 C-285.06123898 601.51839869 -297.61934475 591.63549904 -309.4296875 580.359375 C-311.87619358 578.02652577 -314.3823875 575.79326585 -316.94921875 573.59375 C-321.21442714 569.88818304 -325.08847206 565.88149957 -328.9375 561.75 C-329.63770264 561.00129639 -330.33790527 560.25259277 -331.05932617 559.48120117 C-336.30046085 553.83760377 -341.24926164 548.06458725 -346 542 C-346.87640699 540.91439701 -347.75408317 539.82981781 -348.6328125 538.74609375 C-357.16317213 528.15642395 -364.79344209 517.02427687 -371.65625 505.28125 C-372.52490076 503.80656382 -373.41932685 502.34663026 -374.34375 500.90625 C-379.5870049 492.63355894 -383.57657543 483.68626351 -387.68725586 474.81445312 C-388.58995891 472.87910614 -389.50836411 470.95103028 -390.43969727 469.02929688 C-394.62805151 460.26446256 -397.88752617 451.33148234 -400.9375 442.125 C-401.19634979 441.34842041 -401.45519958 440.57184082 -401.72189331 439.77172852 C-409.03429383 417.70262757 -414.26891523 395.10806527 -417 372 C-417.10151367 371.22188965 -417.20302734 370.4437793 -417.30761719 369.64208984 C-420.63715195 343.70427884 -420.61661241 315.90103804 -417 290 C-416.87109375 289.06687988 -416.7421875 288.13375977 -416.609375 287.17236328 C-413.59029496 266.06326313 -408.85142985 245.20057358 -402 225 C-401.61956543 223.85120361 -401.61956543 223.85120361 -401.23144531 222.67919922 C-397.4313711 211.22222516 -393.11187412 200.14541278 -388.02050781 189.20117188 C-386.98554821 186.96882839 -385.97204168 184.72761094 -384.9609375 182.484375 C-381.62559587 175.15465071 -378.12852919 168.2428905 -373.640625 161.53125 C-371.97380232 158.95958072 -370.54482106 156.33982268 -369.125 153.625 C-361.06882823 138.6024834 -349.85465417 125.0546762 -339 112 C-338.26136719 111.07445312 -337.52273438 110.14890625 -336.76171875 109.1953125 C-330.58164623 101.60574976 -323.83658344 94.6215272 -316.9375 87.6875 C-316.01557861 86.75639404 -315.09365723 85.82528809 -314.14379883 84.8659668 C-309.08468797 79.82938292 -303.91497744 75.16032422 -298.28051758 70.77661133 C-296.26577929 69.20705234 -294.30908302 67.59554853 -292.3671875 65.9375 C-284.48667449 59.27454811 -276.27120045 53.29291852 -267.6875 47.5625 C-266.6979834 46.90056641 -265.7084668 46.23863281 -264.68896484 45.55664062 C-258.29650084 41.34689119 -251.76054579 37.58258431 -245 34 C-243.67058051 33.26797098 -242.34232686 32.53381789 -241.015625 31.796875 C-212.14266141 15.99028614 -181.06824164 5.14615396 -149 -2 C-148.0929834 -2.20850586 -147.1859668 -2.41701172 -146.25146484 -2.63183594 C-98.54504906 -13.45636418 -47.31059283 -11.20403405 0 0 Z " fill="#56C9E6" transform="translate(694,127)"/>
<path d="M0 0 C1.75081201 0.93872523 3.51559204 1.85125483 5.28076172 2.76269531 C18.66736353 9.96968598 30.6389729 19.70795952 41.73779297 30.05175781 C43.66765313 31.83651571 45.6601999 33.49363261 47.69091797 35.16113281 C62.17430373 47.84136613 74.38312087 65.34838404 83.81591797 81.97363281 C84.39140381 82.9672583 84.39140381 82.9672583 84.97851562 83.98095703 C95.47235944 102.2526399 102.99235027 122.23235303 106.81591797 142.97363281 C106.95723145 143.70195312 107.09854492 144.43027344 107.24414062 145.18066406 C117.43225757 198.87695717 107.54281737 255.47879687 77.13671875 301.05957031 C70.21125067 311.09573848 62.11177465 320.29415388 54.11279297 329.47705078 C52.99247148 330.76989166 51.88712511 332.07568126 50.78466797 333.38378906 C46.81418406 338.06715531 42.55600326 342.07573248 37.81591797 345.97363281 C37.27902344 346.41755371 36.74212891 346.86147461 36.18896484 347.31884766 C28.022435 354.04801493 19.75889897 360.30084636 10.81591797 365.97363281 C10.15849609 366.40804688 9.50107422 366.84246094 8.82373047 367.29003906 C6.84978193 368.57352921 4.84638554 369.78130298 2.81591797 370.97363281 C1.83236328 371.55628906 0.84880859 372.13894531 -0.16455078 372.73925781 C-48.24215381 400.28522959 -108.66403018 401.68646058 -161.18408203 387.97363281 C-167.69099935 386.05956977 -173.96092474 383.66106567 -180.18408203 380.97363281 C-180.91127441 380.66167969 -181.6384668 380.34972656 -182.38769531 380.02832031 C-197.02673175 373.65309931 -210.51262954 365.69371492 -223.18408203 355.97363281 C-223.71855957 355.56918945 -224.25303711 355.16474609 -224.80371094 354.74804688 C-248.45290272 336.82402299 -268.32918359 315.76956423 -283.18408203 289.97363281 C-283.53680176 289.37454102 -283.88952148 288.77544922 -284.25292969 288.15820312 C-295.23860368 269.34638731 -302.14802324 248.32555545 -306.18408203 226.97363281 C-306.34634277 226.13880371 -306.50860352 225.30397461 -306.67578125 224.44384766 C-316.27973573 172.63799618 -306.09227531 115.70258869 -276.70214844 71.7578125 C-273.37673016 67.01836005 -269.8379839 62.46312626 -266.18408203 57.97363281 C-265.70938477 57.39000977 -265.2346875 56.80638672 -264.74560547 56.20507812 C-261.62661656 52.40064453 -258.43032522 48.66977922 -255.18408203 44.97363281 C-254.31654297 43.98234375 -253.44900391 42.99105469 -252.55517578 41.96972656 C-247.72443179 36.54896804 -242.81475118 31.55373521 -237.18408203 26.97363281 C-236.64090332 26.52874512 -236.09772461 26.08385742 -235.53808594 25.62548828 C-203.59156146 -0.48784062 -165.79338771 -19.27470848 -124.18408203 -23.02636719 C-123.12447266 -23.1359375 -122.06486328 -23.24550781 -120.97314453 -23.35839844 C-78.86388055 -27.10922361 -37.34551749 -20.0542988 0 0 Z " fill="#56C9E6" transform="translate(714.18408203125,272.0263671875)"/>
<path d="M0 0 C0.82559418 -0.00067474 1.65118835 -0.00134949 2.50180054 -0.00204468 C27.47282471 0.03003364 51.76338818 2.64372132 76.125 8.25 C77.61821777 8.58040283 77.61821777 8.58040283 79.14160156 8.91748047 C100.26948006 13.6174948 120.22274484 21.06001564 139.82519531 30.18017578 C141.43408667 30.92860062 143.04564874 31.6712988 144.65917969 32.40966797 C172.10890665 44.97939344 196.68083874 61.02662943 219.125 81.25 C219.83011719 81.86359375 220.53523437 82.4771875 221.26171875 83.109375 C232.22308006 92.74812578 242.91549304 102.99699778 251.9296875 114.49609375 C253.5616951 116.54336308 255.21329017 118.51358763 256.9453125 120.47265625 C263.93688673 128.38741171 270.05103741 136.62067942 275.88647461 145.41943359 C277.13742483 147.26836416 278.43616521 149.07425559 279.75 150.87890625 C281.80009161 153.72881838 283.54627698 156.64127674 285.1875 159.75 C285.94740234 161.17119141 285.94740234 161.17119141 286.72265625 162.62109375 C287.18542969 163.48863281 287.64820313 164.35617187 288.125 165.25 C289.82769745 168.32239503 291.57514583 171.36450719 293.4284668 174.34912109 C309.60358964 200.54669994 319.16742882 230.4568383 326.125 260.25 C326.43993408 261.58490479 326.43993408 261.58490479 326.76123047 262.94677734 C329.10719585 273.09283015 330.61936505 283.28254276 331.8125 293.625 C331.93206055 294.65109375 332.05162109 295.6771875 332.17480469 296.734375 C333.32568387 307.54263167 333.69774467 318.3934339 334.125 329.25 C333.43817642 329.26030746 332.75135284 329.27061493 332.04371643 329.28123474 C324.92284143 329.38905595 317.80209926 329.50367283 310.68139648 329.62231445 C308.02061735 329.6657418 305.35980893 329.7074109 302.69897461 329.74731445 C298.88386185 329.80482872 295.06889758 329.86857668 291.25390625 329.93359375 C289.45706139 329.95866249 289.45706139 329.95866249 287.62391663 329.98423767 C286.5228508 330.00418289 285.42178497 330.02412811 284.28735352 330.04467773 C283.31250504 330.06022202 282.33765656 330.0757663 281.33326721 330.09178162 C279.15081432 330.00593055 279.15081432 330.00593055 278.125 331.25 C278.00283976 332.8327882 277.94518388 334.4206222 277.9140625 336.0078125 C277.88795898 337.01400635 277.86185547 338.0202002 277.83496094 339.05688477 C277.80692383 340.15186279 277.77888672 341.24684082 277.75 342.375 C276.91879234 366.82053796 272.77581106 390.72075606 266.125 414.25 C264.145 414.25 262.165 414.25 260.125 414.25 C258.95615294 410.8056102 259.31345225 408.58001116 260.234375 405.09375 C260.62266479 403.57406616 260.62266479 403.57406616 261.01879883 402.02368164 C261.44261841 400.40320923 261.44261841 400.40320923 261.875 398.75 C266.52822369 380.22702908 268.95882807 361.75707053 269.75 342.6875 C269.8015625 341.59630859 269.853125 340.50511719 269.90625 339.38085938 C269.97199219 337.82915039 269.97199219 337.82915039 270.0390625 336.24609375 C270.0798291 335.30950928 270.1205957 334.3729248 270.16259766 333.40795898 C270.37525054 331.26869001 270.37525054 331.26869001 269.125 330.25 C267.53498667 330.13248427 265.93989908 330.08271918 264.34570312 330.06054688 C263.327948 330.04382935 262.31019287 330.02711182 261.26159668 330.0098877 C260.15433228 329.99631226 259.04706787 329.98273682 257.90625 329.96875 C256.2139325 329.94113586 256.2139325 329.94113586 254.48742676 329.91296387 C250.86667268 329.85399719 247.24587081 329.80126812 243.625 329.75 C238.86447739 329.68259549 234.10411482 329.60892654 229.34375 329.53125 C228.2364856 329.51767456 227.12922119 329.50409912 225.98840332 329.4901123 C224.97064819 329.47339478 223.95289307 329.45667725 222.90429688 329.43945312 C222.00352417 329.42692505 221.10275146 329.41439697 220.17468262 329.40148926 C218.125 329.25 218.125 329.25 217.125 328.25 C216.88408876 326.24348297 216.70340739 324.22970018 216.546875 322.21484375 C216.44084961 320.94237793 216.33482422 319.66991211 216.22558594 318.35888672 C216.16914917 317.67888611 216.1127124 316.9988855 216.05456543 316.29827881 C211.74497137 265.63930822 192.66154016 221.04663188 157.125 184.25 C156.4743457 183.57211426 155.82369141 182.89422852 155.15332031 182.19580078 C138.00750291 164.41093392 118.83852227 148.46385141 96.125 138.25 C94.92387573 137.68986206 94.92387573 137.68986206 93.69848633 137.1184082 C43.03020772 113.64953707 -14.94351064 111.28269743 -67.875 128.25 C-68.72578125 128.51683594 -69.5765625 128.78367188 -70.453125 129.05859375 C-82.66725107 132.92640034 -93.81122153 137.79926308 -104.875 144.25 C-106.02476318 144.91636475 -106.02476318 144.91636475 -107.19775391 145.59619141 C-116.28122914 150.89969087 -124.88831208 156.37076473 -132.875 163.25 C-133.84050781 164.03375 -134.80601562 164.8175 -135.80078125 165.625 C-158.24793451 183.93047092 -178.79211856 206.71641022 -190.875 233.25 C-191.51831546 234.516305 -192.16855353 235.77910763 -192.82421875 237.0390625 C-197.25785937 245.57639838 -200.93369121 254.06668543 -203.875 263.25 C-204.11460449 263.97106934 -204.35420898 264.69213867 -204.60107422 265.43505859 C-207.77459989 275.02405657 -210.3483138 284.61460001 -212.125 294.5625 C-212.27590088 295.3887085 -212.42680176 296.21491699 -212.58227539 297.06616211 C-214.348901 307.70473177 -215.00592916 318.50890733 -215.875 329.25 C-216.51171127 329.26030746 -217.14842255 329.27061493 -217.8044281 329.28123474 C-224.40626798 329.38906331 -231.00796478 329.50367961 -237.60961914 329.62231445 C-240.07638569 329.66573943 -242.54318378 329.70740872 -245.01000977 329.74731445 C-248.54713466 329.80483445 -252.08409966 329.86858075 -255.62109375 329.93359375 C-256.73149521 329.95030624 -257.84189667 329.96701874 -258.98594666 329.98423767 C-260.00692947 330.00418289 -261.02791229 330.02412811 -262.07983398 330.04467773 C-262.98362289 330.06022202 -263.8874118 330.0757663 -264.81858826 330.09178162 C-266.86694101 330.02501457 -266.86694101 330.02501457 -267.875 331.25 C-269.33275284 354.96651741 -265.06449227 378.37588013 -259.55419922 401.32861328 C-258.55749231 405.61567109 -257.70050294 409.92711424 -256.875 414.25 C-258.855 414.25 -260.835 414.25 -262.875 414.25 C-265.33038882 408.92643235 -266.96878882 403.7009084 -268.3125 398 C-268.52422852 397.10321533 -268.73595703 396.20643066 -268.95410156 395.2824707 C-273.55358035 375.00028632 -276.26063659 354.22049915 -275.8125 333.41015625 C-275.62713335 331.26907972 -275.62713335 331.26907972 -276.875 330.25 C-278.556961 330.13223236 -280.24375396 330.08268525 -281.9296875 330.06054688 C-283.00750488 330.04382935 -284.08532227 330.02711182 -285.19580078 330.0098877 C-286.36868652 329.99631226 -287.54157227 329.98273682 -288.75 329.96875 C-289.9447998 329.95034058 -291.13959961 329.93193115 -292.37060547 329.91296387 C-296.20535183 329.85399281 -300.04014333 329.80126558 -303.875 329.75 C-308.9167668 329.68260007 -313.95838232 329.60893103 -319 329.53125 C-320.17288574 329.51767456 -321.34577148 329.50409912 -322.55419922 329.4901123 C-323.6320166 329.47339478 -324.70983398 329.45667725 -325.8203125 329.43945312 C-326.77437988 329.42692505 -327.72844727 329.41439697 -328.71142578 329.40148926 C-330.875 329.25 -330.875 329.25 -331.875 328.25 C-335.10938141 278.55248568 -318.2964553 223.74698842 -294.875 180.25 C-294.09989021 178.62703548 -293.32871159 177.00218433 -292.5625 175.375 C-282.17299479 154.73359893 -268.33897792 135.36076186 -252.875 118.25 C-252.07320313 117.35023438 -251.27140625 116.45046875 -250.4453125 115.5234375 C-248.96869859 113.8731043 -247.48585649 112.22831721 -245.99609375 110.58984375 C-244.60126866 109.0511693 -243.21803372 107.50189389 -241.84765625 105.94140625 C-231.72001369 94.45586748 -220.97749636 83.64983214 -208.875 74.25 C-207.82129032 73.39653528 -206.76928669 72.5409611 -205.71875 71.68359375 C-186.25949001 55.91439442 -164.55504511 42.8384329 -141.875 32.25 C-140.97040039 31.8271875 -140.06580078 31.404375 -139.13378906 30.96875 C-95.04897401 10.55723419 -48.5959232 0.03606172 0 0 Z " fill="#0D0F1E" transform="translate(613.875,124.75)"/>
<path d="M0 0 C1.75081201 0.93872523 3.51559204 1.85125483 5.28076172 2.76269531 C18.66736353 9.96968598 30.6389729 19.70795952 41.73779297 30.05175781 C43.66765313 31.83651571 45.6601999 33.49363261 47.69091797 35.16113281 C62.17430373 47.84136613 74.38312087 65.34838404 83.81591797 81.97363281 C84.39140381 82.9672583 84.39140381 82.9672583 84.97851562 83.98095703 C95.47235944 102.2526399 102.99235027 122.23235303 106.81591797 142.97363281 C106.95723145 143.70195312 107.09854492 144.43027344 107.24414062 145.18066406 C117.43225757 198.87695717 107.54281737 255.47879687 77.13671875 301.05957031 C70.21125067 311.09573848 62.11177465 320.29415388 54.11279297 329.47705078 C52.99247148 330.76989166 51.88712511 332.07568126 50.78466797 333.38378906 C46.81418406 338.06715531 42.55600326 342.07573248 37.81591797 345.97363281 C37.27902344 346.41755371 36.74212891 346.86147461 36.18896484 347.31884766 C28.022435 354.04801493 19.75889897 360.30084636 10.81591797 365.97363281 C10.15849609 366.40804688 9.50107422 366.84246094 8.82373047 367.29003906 C6.84978193 368.57352921 4.84638554 369.78130298 2.81591797 370.97363281 C1.83236328 371.55628906 0.84880859 372.13894531 -0.16455078 372.73925781 C-48.24215381 400.28522959 -108.66403018 401.68646058 -161.18408203 387.97363281 C-167.69099935 386.05956977 -173.96092474 383.66106567 -180.18408203 380.97363281 C-180.91127441 380.66167969 -181.6384668 380.34972656 -182.38769531 380.02832031 C-197.02673175 373.65309931 -210.51262954 365.69371492 -223.18408203 355.97363281 C-223.71855957 355.56918945 -224.25303711 355.16474609 -224.80371094 354.74804688 C-248.45290272 336.82402299 -268.32918359 315.76956423 -283.18408203 289.97363281 C-283.53680176 289.37454102 -283.88952148 288.77544922 -284.25292969 288.15820312 C-295.23860368 269.34638731 -302.14802324 248.32555545 -306.18408203 226.97363281 C-306.34634277 226.13880371 -306.50860352 225.30397461 -306.67578125 224.44384766 C-316.27973573 172.63799618 -306.09227531 115.70258869 -276.70214844 71.7578125 C-273.37673016 67.01836005 -269.8379839 62.46312626 -266.18408203 57.97363281 C-265.70938477 57.39000977 -265.2346875 56.80638672 -264.74560547 56.20507812 C-261.62661656 52.40064453 -258.43032522 48.66977922 -255.18408203 44.97363281 C-254.31654297 43.98234375 -253.44900391 42.99105469 -252.55517578 41.96972656 C-247.72443179 36.54896804 -242.81475118 31.55373521 -237.18408203 26.97363281 C-236.64090332 26.52874512 -236.09772461 26.08385742 -235.53808594 25.62548828 C-203.59156146 -0.48784062 -165.79338771 -19.27470848 -124.18408203 -23.02636719 C-123.12447266 -23.1359375 -122.06486328 -23.24550781 -120.97314453 -23.35839844 C-78.86388055 -27.10922361 -37.34551749 -20.0542988 0 0 Z M-156.18408203 17.97363281 C-157.37001953 18.35261719 -158.55595703 18.73160156 -159.77783203 19.12207031 C-175.56879102 24.42128853 -189.525223 32.55693327 -203.18408203 41.97363281 C-204.25916016 42.70710938 -205.33423828 43.44058594 -206.44189453 44.19628906 C-222.2559091 55.66246075 -236.67610627 70.48868267 -247.18408203 86.97363281 C-247.82047607 87.96411621 -247.82047607 87.96411621 -248.46972656 88.97460938 C-266.36074535 117.19274768 -277.35810436 150.39428465 -277.18408203 183.97363281 C-277.18134277 184.7921875 -277.17860352 185.61074219 -277.17578125 186.45410156 C-276.96844994 206.14680655 -273.78866382 225.41882532 -267.18408203 243.97363281 C-266.74997458 245.26252241 -266.31638733 246.55158732 -265.88330078 247.84082031 C-251.28697805 290.06215183 -218.56989778 324.49709409 -178.87158203 344.34863281 C-176.32269458 345.58759426 -173.75930063 346.79050058 -171.18408203 347.97363281 C-170.19408203 348.43253906 -169.20408203 348.89144531 -168.18408203 349.36425781 C-149.44179465 357.5900395 -129.63537553 362.21787393 -109.18408203 362.97363281 C-108.15420166 363.01447998 -108.15420166 363.01447998 -107.10351562 363.05615234 C-85.78685029 363.79120977 -64.54232424 361.40537448 -44.18408203 354.97363281 C-42.95818359 354.59335937 -41.73228516 354.21308594 -40.46923828 353.82128906 C-4.85594811 341.92348571 26.65523918 316.38417112 47.69628906 285.60644531 C48.65505513 284.20822737 49.63391458 282.82382413 50.61669922 281.44238281 C61.18687392 265.9024601 68.25516377 248.11448218 72.81591797 229.97363281 C73.13044922 228.76835937 73.44498047 227.56308594 73.76904297 226.32128906 C84.10013377 182.92057917 76.16963077 134.09781277 53.30078125 95.91210938 C49.36746522 89.53855102 45.08656112 83.42710101 40.62841797 77.41113281 C40.1537207 76.76845459 39.67902344 76.12577637 39.18994141 75.46362305 C36.19038077 71.50744857 32.95749517 67.9798132 29.38085938 64.53637695 C27.81591797 62.97363281 27.81591797 62.97363281 25.37841797 59.97363281 C22.16501948 56.21160531 18.6079105 53.13700626 14.81591797 49.97363281 C14.14431641 49.39097656 13.47271484 48.80832031 12.78076172 48.20800781 C-0.98626363 36.65050505 -16.40855575 27.37389147 -33.18408203 20.97363281 C-33.97298828 20.66731934 -34.76189453 20.36100586 -35.57470703 20.04541016 C-74.70789144 5.1289993 -116.59375781 4.82457368 -156.18408203 17.97363281 Z " fill="#0D0F1E" transform="translate(714.18408203125,272.0263671875)"/>
<path d="M0 0 C14.99337398 -0.54800344 34.46037238 3.56397791 46.234375 13.46484375 C51.26012207 19.46781941 53.90512937 25.07825855 53.7578125 33.00390625 C52.92637546 39.53662588 49.2231988 43.89211893 44.265625 47.92578125 C38.30082329 52.03312278 32.58129615 51.95310255 25.484375 51.15234375 C22.22408996 50.09351286 19.22617678 48.83142675 16.140625 47.34375 C6.35010978 42.95241597 -5.61587683 44.41986969 -15.46875 47.8203125 C-27.42321223 53.04655817 -33.83678094 61.23324464 -38.515625 73.15234375 C-42.4551176 84.0773284 -40.69317766 94.54336981 -36.515625 105.15234375 C-32.84179386 112.57318993 -26.11019211 117.46708663 -19.515625 122.15234375 C-18.71125 122.72984375 -17.906875 123.30734375 -17.078125 123.90234375 C-7.43941232 128.60415481 6.20169889 128.91318864 16.359375 125.65234375 C31.57490239 119.02109898 40.20384178 104.64100508 47.02734375 90.1484375 C48.70066527 86.70758601 50.56787766 83.39865293 52.484375 80.08984375 C54.81982725 76.05017207 57.13535967 72.00483531 59.359375 67.90234375 C59.83761719 67.02578125 60.31585937 66.14921875 60.80859375 65.24609375 C61.72384557 63.55639809 62.63669478 61.86535831 63.53759766 60.16796875 C78.03495955 32.87881694 95.04128585 12.56552144 125.5234375 2.96484375 C147.17374291 -2.97613715 170.32057381 0.22191101 190.08203125 10.7109375 C209.6596978 22.45753743 225.15608635 41.93351837 230.984375 64.21484375 C231.51655502 66.52015082 232.0220033 68.83202725 232.484375 71.15234375 C232.63390625 71.87292969 232.7834375 72.59351563 232.9375 73.3359375 C233.25688753 75.2900849 233.39940154 77.1731702 233.484375 79.15234375 C233.56171875 80.74369141 233.56171875 80.74369141 233.640625 82.3671875 C234.27736803 107.65119215 226.08598362 128.31280856 208.77368164 146.90380859 C194.46941897 161.66362103 175.19400207 170.84970192 154.5703125 171.35546875 C134.27658058 171.59366871 115.83512993 169.71687138 99.484375 156.15234375 C95.09436665 150.25327003 94.8001171 144.28817612 95.484375 137.15234375 C97.46158208 130.17256455 102.18100624 125.603743 108.36328125 122.08203125 C113.77900247 119.65316234 118.77492839 119.74384591 124.484375 121.15234375 C127.41727487 122.30524994 130.22253267 123.58372311 133.0390625 124.99609375 C141.1043561 128.809715 152.85342263 128.27143612 161.375 125.96484375 C172.03323883 121.85944805 180.14999556 114.44568689 185.4765625 104.42578125 C189.8357026 94.59237219 190.32266659 81.71067144 186.58203125 71.48046875 C181.34071279 60.36365094 174.15342242 51.60456148 162.625 46.84375 C151.93118637 43.38972625 139.1846246 43.63428485 129.109375 48.64453125 C128.243125 49.14210938 127.376875 49.6396875 126.484375 50.15234375 C125.72125 50.56742187 124.958125 50.9825 124.171875 51.41015625 C113.41210662 58.44243344 106.3045154 72.74783469 100.9453125 84.0703125 C84.87620279 117.97011881 66.26372715 153.6205558 29.8515625 168.20703125 C9.75233484 175.36099364 -15.62574756 172.85783636 -34.99609375 164.68359375 C-56.96664962 153.76521763 -73.21973993 136.97633182 -81.08203125 113.671875 C-83.31230214 106.63859201 -85.30718244 99.56694348 -85.515625 92.15234375 C-85.55429687 91.48976563 -85.59296875 90.8271875 -85.6328125 90.14453125 C-86.35187409 68.49278784 -78.44058656 45.14979779 -63.640625 29.15234375 C-61.64817628 27.09713085 -59.60205375 25.11171874 -57.515625 23.15234375 C-56.64164062 22.32089844 -55.76765625 21.48945313 -54.8671875 20.6328125 C-39.65631858 7.22623584 -19.91707191 1.20615808 0 0 Z " fill="#0D0F1E" transform="translate(540.515625,371.84765625)"/>
<path d="M0 0 C2.07752606 1.09130746 4.18162227 2.13298225 6.3046875 3.1328125 C50.50840759 24.06090145 82.74925914 65.87878309 99.1875 111.125 C114.96974629 156.73364214 112.29492266 208.86064939 92.1875 252.6484375 C90.5441395 256.01271033 88.82071921 259.30425518 87.01171875 262.58203125 C86.4703125 263.57976562 85.92890625 264.5775 85.37109375 265.60546875 C72.01800629 289.37895625 53.17719323 310.72896108 31.01171875 326.58203125 C30.09261719 327.24976563 29.17351562 327.9175 28.2265625 328.60546875 C24.23892137 331.4563615 20.24327719 334.17163319 15.92578125 336.5078125 C14.49602369 337.31022746 13.09935033 338.17211253 11.72265625 339.0625 C-3.92567822 348.91599015 -22.07125939 354.49330669 -39.98828125 358.58203125 C-40.73384277 358.75734375 -41.4794043 358.93265625 -42.24755859 359.11328125 C-85.83043973 369.16013539 -133.01608076 360.70674759 -171.98828125 339.58203125 C-173.03371094 339.01742188 -174.07914063 338.4528125 -175.15625 337.87109375 C-189.64990009 329.71482567 -203.66678535 319.45725932 -215.13671875 307.40625 C-217.01827652 305.48286261 -217.01827652 305.48286261 -219.453125 303.65625 C-235.7641027 290.31090461 -247.73724484 267.5134936 -255.98828125 248.58203125 C-256.50261719 247.43476562 -257.01695312 246.2875 -257.546875 245.10546875 C-262.30390392 233.96042958 -265.32707594 222.38639229 -267.98828125 210.58203125 C-268.17052246 209.77733398 -268.35276367 208.97263672 -268.54052734 208.14355469 C-278.12264732 163.46513261 -268.03263691 110.84532514 -243.24926758 72.52490234 C-241.2211215 69.50054977 -239.11996715 66.53399194 -236.98828125 63.58203125 C-235.87646484 62.01195312 -235.87646484 62.01195312 -234.7421875 60.41015625 C-229.32816671 52.959846 -223.34288491 46.22507083 -216.98828125 39.58203125 C-215.73337891 38.26525391 -215.73337891 38.26525391 -214.453125 36.921875 C-201.48652053 23.62648183 -186.48640868 13.03884916 -169.98828125 4.58203125 C-168.69857422 3.88207031 -168.69857422 3.88207031 -167.3828125 3.16796875 C-117.62891116 -23.07738964 -50.49444036 -26.62924425 0 0 Z M-137.98828125 4.58203125 C-139.17421875 4.96101563 -140.36015625 5.34 -141.58203125 5.73046875 C-157.37299024 11.02968697 -171.32942222 19.16533171 -184.98828125 28.58203125 C-186.06335938 29.31550781 -187.1384375 30.04898438 -188.24609375 30.8046875 C-204.06010832 42.27085919 -218.48030548 57.09708111 -228.98828125 73.58203125 C-229.62467529 74.57251465 -229.62467529 74.57251465 -230.27392578 75.58300781 C-248.16494457 103.80114612 -259.16230358 137.00268308 -258.98828125 170.58203125 C-258.98554199 171.40058594 -258.98280273 172.21914063 -258.97998047 173.0625 C-258.77264916 192.75520499 -255.59286304 212.02722376 -248.98828125 230.58203125 C-248.5541738 231.87092085 -248.12058655 233.15998576 -247.6875 234.44921875 C-233.09117727 276.67055027 -200.37409699 311.10549253 -160.67578125 330.95703125 C-158.1268938 332.19599269 -155.56349985 333.39889902 -152.98828125 334.58203125 C-151.99828125 335.0409375 -151.00828125 335.49984375 -149.98828125 335.97265625 C-131.24599387 344.19843793 -111.43957475 348.82627236 -90.98828125 349.58203125 C-89.95840088 349.62287842 -89.95840088 349.62287842 -88.90771484 349.66455078 C-67.59104951 350.39960821 -46.34652346 348.01377292 -25.98828125 341.58203125 C-24.76238281 341.20175781 -23.53648437 340.82148437 -22.2734375 340.4296875 C13.33985267 328.53188415 44.85103996 302.99256955 65.89208984 272.21484375 C66.85085591 270.81662581 67.82971536 269.43222257 68.8125 268.05078125 C79.3826747 252.51085854 86.45096455 234.72288061 91.01171875 216.58203125 C91.32625 215.37675781 91.64078125 214.17148437 91.96484375 212.9296875 C102.29593455 169.52897761 94.36543155 120.70621121 71.49658203 82.52050781 C67.563266 76.14694945 63.28236191 70.03549944 58.82421875 64.01953125 C58.34952148 63.37685303 57.87482422 62.7341748 57.38574219 62.07202148 C54.38618155 58.115847 51.15329595 54.58821164 47.57666016 51.14477539 C46.01171875 49.58203125 46.01171875 49.58203125 43.57421875 46.58203125 C40.36082026 42.82000375 36.80371128 39.7454047 33.01171875 36.58203125 C32.34011719 35.999375 31.66851563 35.41671875 30.9765625 34.81640625 C17.20953715 23.25890349 1.78724503 13.98228991 -14.98828125 7.58203125 C-15.7771875 7.27571777 -16.56609375 6.9694043 -17.37890625 6.65380859 C-56.51209065 -8.26260226 -98.39795703 -8.56702788 -137.98828125 4.58203125 Z " fill="#0D0F1E" transform="translate(695.98828125,285.41796875)"/>
<path d="M0 0 C1.19496094 0.42796875 2.38992188 0.8559375 3.62109375 1.296875 C28.2730013 10.58373118 48.98145986 26.05508713 68 44 C68.8559375 44.80179687 69.711875 45.60359375 70.59375 46.4296875 C77.47679226 53.07313018 83.27922617 60.36275671 89 68 C89.67409912 68.89090332 89.67409912 68.89090332 90.36181641 69.79980469 C96.18255612 77.52839484 100.8786015 85.21775293 105 94 C105.6380982 95.25002833 106.28163346 96.49729149 106.9296875 97.7421875 C111.70041441 106.94028497 115.61486382 116.20945643 119 126 C119.36867188 127.01835937 119.73734375 128.03671875 120.1171875 129.0859375 C126.39946691 147.64057668 128.23312457 167.77833044 128.25 187.25 C128.25067474 187.95420074 128.25134949 188.65840149 128.25204468 189.38394165 C128.23328025 201.78652477 127.37512971 213.81109615 125 226 C124.83371094 226.86592773 124.66742187 227.73185547 124.49609375 228.62402344 C120.33464617 249.53144435 112.70502852 269.40118265 101.4921875 287.55078125 C100.3403926 289.44129277 99.24561502 291.36661604 98.17578125 293.3046875 C95.85877645 297.37422831 93.13625225 301.08288802 90.3125 304.8125 C89.78575684 305.51173584 89.25901367 306.21097168 88.71630859 306.93139648 C85.01079959 311.79775531 81.12007294 316.4205725 76.94921875 320.8984375 C75.20472294 322.77927667 73.56532432 324.70618031 71.9375 326.6875 C69.33247491 329.73728547 66.49947504 332.34324646 63.4375 334.9296875 C61.57360609 336.51280252 59.75104374 338.11873345 57.9375 339.7578125 C49.54142502 347.27073213 40.78877257 353.43300958 31 359 C30.26120605 359.42023438 29.52241211 359.84046875 28.76123047 360.2734375 C9.3811036 371.15235201 -10.27236709 378.3577939 -32 383 C-32.79712402 383.17934082 -33.59424805 383.35868164 -34.41552734 383.54345703 C-83.34614457 394.2248209 -137.42773001 381.50832647 -178.97265625 354.85546875 C-200.23178157 340.84968246 -220.47735147 323.02371872 -235 302 C-235.43473633 301.38253906 -235.86947266 300.76507812 -236.31738281 300.12890625 C-265.5824374 258.23279692 -276.70074335 204.91623656 -268.4453125 154.62060547 C-262.04477793 120.17328398 -248.30854794 88.11152143 -226 61 C-225.50628906 60.39800781 -225.01257813 59.79601562 -224.50390625 59.17578125 C-190.65287287 18.23375833 -141.19226703 -6.94930415 -88.4375 -12.1875 C-58.2791845 -14.86644961 -28.39153556 -10.43852692 0 0 Z M-115 2 C-116.09570312 2.24105469 -117.19140625 2.48210937 -118.3203125 2.73046875 C-126.80491002 4.75196682 -134.77801442 7.72101867 -142.875 10.9375 C-144.46211792 11.56603882 -144.46211792 11.56603882 -146.08129883 12.20727539 C-152.32636246 14.74201046 -158.19011704 17.59010511 -164 21 C-165.02867187 21.57363281 -166.05734375 22.14726562 -167.1171875 22.73828125 C-210.38423298 47.43604234 -241.4612331 89.20370488 -254.69921875 136.9765625 C-255.24446634 139.04491575 -255.78234189 141.1152277 -256.3125 143.1875 C-256.55500488 144.12408447 -256.79750977 145.06066895 -257.04736328 146.02563477 C-260.41815675 159.83159488 -261.38744301 173.59238446 -261.3125 187.75 C-261.31034485 188.49045563 -261.3081897 189.23091125 -261.30596924 189.99380493 C-261.25069526 201.88234252 -260.61466271 213.37379538 -258 225 C-257.70198486 226.35279053 -257.70198486 226.35279053 -257.39794922 227.73291016 C-249.31551774 263.44696507 -231.57574371 300.20140792 -203.109375 324.19921875 C-200.79890227 326.17167787 -198.59615076 328.24015182 -196.375 330.3125 C-158.37982161 364.52561622 -107.34971479 379.27108732 -57 377 C-29.55769961 375.05355592 -3.1454373 367.15926333 21 354 C22.010625 353.45859375 23.02125 352.9171875 24.0625 352.359375 C31.39512685 348.27296316 37.94049553 343.46626817 44.46679688 338.22460938 C45.86584822 337.10715053 47.28358943 336.01319425 48.703125 334.921875 C63.22782049 323.52825159 75.32588026 310.00156836 86 295 C86.61077393 294.14897705 86.61077393 294.14897705 87.23388672 293.28076172 C92.27658184 286.19847071 96.30468519 278.85634054 100 271 C100.48082031 270.0409375 100.96164062 269.081875 101.45703125 268.09375 C122.9731981 224.03954031 124.58543098 170.93467954 108.91699219 124.80078125 C95.87139334 88.13650135 71.2493369 53.2205797 39 31 C38.34386719 30.54786133 37.68773437 30.09572266 37.01171875 29.62988281 C24.55466905 21.14221769 11.98768724 14.10186682 -2.35546875 9.23828125 C-4.40663565 8.54136817 -6.45291402 7.8279373 -8.47802734 7.05859375 C-14.99083147 4.59297426 -21.43529346 2.79103539 -28.25 1.375 C-29.26231689 1.16335205 -30.27463379 0.9517041 -31.31762695 0.73364258 C-34.20894019 0.14034575 -37.10319375 -0.43421339 -40 -1 C-41.90072266 -1.37705078 -41.90072266 -1.37705078 -43.83984375 -1.76171875 C-67.11999613 -5.59194219 -92.17933239 -3.56023195 -115 2 Z " fill="#57CAE7" transform="translate(686,271)"/>
<path d="M0 0 C1.216875 0.27070312 2.43375 0.54140625 3.6875 0.8203125 C7 1.875 7 1.875 9.09375 3.45703125 C11.60106656 5.32210484 13.4069644 5.30579107 16.5 5.4375 C20.1800909 5.60431731 22.9044191 5.78482144 26 7.875 C28.87481652 11.58956555 30.76218711 15.50096997 31.5625 20.125 C29.41176471 34.46323529 29.41176471 34.46323529 25 38.875 C21.55834679 38.52200993 19.93127462 37.82918308 17 35.875 C17.22816406 34.93398438 17.45632813 33.99296875 17.69140625 33.0234375 C18.12259766 31.15558594 18.12259766 31.15558594 18.5625 29.25 C18.99755859 27.40535156 18.99755859 27.40535156 19.44140625 25.5234375 C19.99059728 21.93641357 19.81517436 19.38402871 19 15.875 C17.04363514 15.79728232 17.04363514 15.79728232 15 16.875 C13.97509995 19.3717042 13.19719501 21.66316611 12.5 24.25 C10.58192214 31.28736153 10.58192214 31.28736153 8.01171875 33.8828125 C6 34.875 6 34.875 3.3125 34.375 C1 32.875 1 32.875 0.26171875 30.62890625 C-0.04136383 27.43975372 0.51979054 25.35030431 1.5 22.3125 C2.65782407 18.71426225 3.29245221 16.48876441 2 12.875 C-0.475 12.38 -0.475 12.38 -3 11.875 C-3.17015625 12.75542969 -3.3403125 13.63585937 -3.515625 14.54296875 C-3.75796875 15.70441406 -4.0003125 16.86585938 -4.25 18.0625 C-4.48203125 19.21105469 -4.7140625 20.35960937 -4.953125 21.54296875 C-6.06894568 25.09444278 -7.51115305 27.1444675 -10 29.875 C-14.75 29.125 -14.75 29.125 -17 26.875 C-16.61531997 18.88549171 -14.53678836 5.99853666 -9.3046875 -0.1015625 C-5.88625702 -1.61957739 -3.59643007 -0.84577063 0 0 Z " fill="#0D0F1E" transform="translate(535,711.125)"/>
<path d="M0 0 C5.57987618 2.28267662 8.51944243 5.11627135 11 10.5 C15.43528433 21.69027803 15.43528433 21.69027803 13.75 28.125 C13.255 28.62 13.255 28.62 12.75 29.125 C9.375 29.125 9.375 29.125 5.75 28.125 C4.29009859 25.62231187 3.5450764 23.8402609 2.75 21.125 C2.18903802 19.47864182 1.6265317 17.83280905 1.0625 16.1875 C0.62197995 14.83431276 0.18338746 13.48048844 -0.25 12.125 C-2.725 11.63 -2.725 11.63 -5.25 11.125 C-5.10769192 12.54202513 -4.96099254 13.9586096 -4.8125 15.375 C-4.69068359 16.55835938 -4.69068359 16.55835938 -4.56640625 17.765625 C-4.30201377 20.08845989 -4.30201377 20.08845989 -3.7265625 22.1640625 C-2.90515808 25.54393972 -3.08197 28.65237999 -3.25 32.125 C-3.91 32.785 -4.57 33.445 -5.25 34.125 C-7.87195956 33.9233108 -9.6462134 33.57396952 -11.7734375 31.9921875 C-13.86054463 29.35293563 -14.51277045 26.65810983 -15.4375 23.4375 C-15.78167969 22.25800781 -16.12585938 21.07851562 -16.48046875 19.86328125 C-16.73441406 18.95964844 -16.98835937 18.05601562 -17.25 17.125 C-18.9 16.795 -20.55 16.465 -22.25 16.125 C-22.10851011 17.7295556 -21.96164314 19.33363767 -21.8125 20.9375 C-21.73128906 21.83082031 -21.65007813 22.72414062 -21.56640625 23.64453125 C-21.31510233 26.25243559 -21.31510233 26.25243559 -20.25 29.125 C-20.0204918 35.66598361 -20.0204918 35.66598361 -21.25 38.125 C-24.0625 38.375 -24.0625 38.375 -27.25 38.125 C-30.83761301 34.69337017 -31.73370932 29.88807058 -33 25.25 C-33.23332031 24.45980469 -33.46664062 23.66960937 -33.70703125 22.85546875 C-34.97398382 18.29595682 -35.64869006 14.79205764 -34.25 10.125 C-30.67313334 6.54813334 -24.95356166 5.14329822 -19.94140625 5.109375 C-19.21824219 5.15578125 -18.49507812 5.2021875 -17.75 5.25 C-13.81688459 5.43795419 -11.50677707 4.44166462 -8.0625 2.5625 C-4.99605557 0.89894205 -3.53835105 0.13609043 0 0 Z " fill="#FBFCFD" transform="translate(557.25,181.875)"/>
<path d="M0 0 C6.86845718 3.66317717 11.81308652 10.66352876 16.8125 16.5 C17.37453125 17.14582031 17.9365625 17.79164063 18.515625 18.45703125 C24.8125 25.71677791 24.8125 25.71677791 24.8125 30.5 C23.16178604 31.52611949 21.49279994 32.52308143 19.8125 33.5 C19.338125 34.304375 18.86375 35.10875 18.375 35.9375 C15.99807549 39.8356562 13.10399625 41.88642996 8.66796875 43.07421875 C3.26217393 43.93067347 -0.34868481 43.29162415 -5.1875 40.5 C-11.01892808 35.30242279 -11.01892808 35.30242279 -11.390625 31.328125 C-11.51333518 24.57906506 -10.67248075 20.36149298 -6.125 15.125 C-4.1875 13.5 -4.1875 13.5 -2.1875 13.5 C-2.8475 11.85 -3.5075 10.2 -4.1875 8.5 C-4.8475 8.5 -5.5075 8.5 -6.1875 8.5 C-6.5175 7.51 -6.8475 6.52 -7.1875 5.5 C-3.98237179 -0.91025641 -3.98237179 -0.91025641 0 0 Z " fill="#0D0F1E" transform="translate(804.1875,635.5)"/>
<path d="M0 0 C1.97256471 1.73124031 3.86482108 3.49856609 5.703125 5.37109375 C6.610625 4.69046875 7.518125 4.00984375 8.453125 3.30859375 C11.703125 1.37109375 11.703125 1.37109375 13.953125 1.49609375 C15.703125 2.37109375 15.703125 2.37109375 17.703125 4.37109375 C18.11328125 6.6953125 18.11328125 6.6953125 17.703125 9.37109375 C15.76171875 11.765625 15.76171875 11.765625 13.140625 14.18359375 C9.94982422 17.21260745 6.86973736 20.20924728 4.015625 23.55859375 C1.71595794 26.21622786 -0.5868862 28.86340449 -2.984375 31.43359375 C-3.52449219 32.02269531 -4.06460938 32.61179687 -4.62109375 33.21875 C-6.296875 34.37109375 -6.296875 34.37109375 -8.26171875 34.2578125 C-10.67797814 33.20504689 -12.23645304 31.90883291 -14.171875 30.12109375 C-16.64005323 27.86974613 -19.11357127 25.69247597 -21.734375 23.62109375 C-24.46204233 21.22606878 -25.08149992 19.93102468 -25.5703125 16.390625 C-25.85522189 10.19932478 -24.48028578 6.01325976 -20.296875 1.37109375 C-17.234375 -0.56640625 -17.234375 -0.56640625 -14.296875 -1.62890625 C-13.678125 -1.87640625 -13.059375 -2.12390625 -12.421875 -2.37890625 C-7.5984335 -2.94636996 -3.97870814 -2.82163486 0 0 Z " fill="#FAFBFC" transform="translate(807.296875,250.62890625)"/>
<path d="M0 0 C2.63470944 1.39874566 5.08996935 3.02212783 7.5625 4.6875 C8.5515332 5.32075195 8.5515332 5.32075195 9.56054688 5.96679688 C13.85813383 8.83041512 16.42190175 11.51948829 19 16 C12.9216018 29.75989042 12.9216018 29.75989042 6 34 C0.91913327 35.69362224 -4.3922687 36.26448716 -9.328125 33.87109375 C-13.5003068 30.91193517 -16.52464093 28.01622082 -18 23 C-18.55203234 15.58896583 -15.58712443 11.47235897 -11 6 C-10.23297462 4.86549301 -9.48076581 3.72069487 -8.75 2.5625 C-6.01987965 -1.43517623 -4.45938585 -1.33965089 0 0 Z " fill="#0D0F1E" transform="translate(848,600)"/>
<path d="M0 0 C3.73433413 0.29658971 5.21497108 1.15995403 8.18359375 3.3828125 C9.46556641 4.33800781 9.46556641 4.33800781 10.7734375 5.3125 C19.55506385 12.22126765 19.55506385 12.22126765 22.24609375 16.2578125 C21.90003764 18.54178282 21.27904856 20.19190287 20.24609375 22.2578125 C19.58609375 22.2578125 18.92609375 22.2578125 18.24609375 22.2578125 C18.06046875 23.2890625 17.87484375 24.3203125 17.68359375 25.3828125 C16.36849475 30.07142632 13.20816818 32.62819517 9.24609375 35.2578125 C5.12975943 36.62992394 1.54206931 36.99347229 -2.75390625 36.2578125 C-7.48641647 33.82208185 -11.8676947 30.32700605 -13.75390625 25.2578125 C-14.49438524 19.56670258 -14.03106937 15.11705436 -10.75390625 10.2578125 C-9.09120338 8.91953946 -7.42474444 7.58591465 -5.75390625 6.2578125 C-4.4854294 3.67282738 -4.4854294 3.67282738 -3.75390625 1.2578125 C-2.75390625 0.2578125 -2.75390625 0.2578125 0 0 Z " fill="#FBFCFD" transform="translate(393.75390625,285.7421875)"/>
<path d="M0 0 C3.52627299 2.77978375 5.59478749 5.63964372 6.875 9.9375 C6.91625 10.618125 6.9575 11.29875 7 12 C8.485 12.495 8.485 12.495 10 13 C11.65936486 15.3231108 12.03500689 16.57086378 11.80175781 19.43017578 C10.31214537 24.20473748 5.75234318 26.21070086 1.75 28.875 C0.89019531 29.48085938 0.03039062 30.08671875 -0.85546875 30.7109375 C-1.69207031 31.278125 -2.52867187 31.8453125 -3.390625 32.4296875 C-4.5357959 33.20675049 -4.5357959 33.20675049 -5.70410156 33.99951172 C-8.58654787 35.25560115 -10.03831793 34.91647537 -13 34 C-15 33 -15 33 -16.25 30.875 C-17.78182882 28.35842407 -19.13758091 26.85277241 -21.1875 24.8125 C-23.77235066 21.86757064 -24.45662634 19.85482548 -24.5625 15.9375 C-24.21337163 10.58690479 -22.59689017 6.99611272 -19.25 2.8125 C-12.97457023 -2.24270732 -7.48563289 -3.13953353 0 0 Z " fill="#0D0F1E" transform="translate(391,604)"/>
<path d="M0 0 C3.53167889 2.76577263 5.5967567 5.64625465 6.875 9.9375 C6.91625 10.618125 6.9575 11.29875 7 12 C7.66 12 8.32 12 9 12 C10.6875 13.6875 10.6875 13.6875 12 16 C11.9296875 18.36328125 11.9296875 18.36328125 11 21 C8.55859375 23.28125 8.55859375 23.28125 5.4375 25.5 C4.89609375 25.88655762 4.3546875 26.27311523 3.796875 26.67138672 C2.20856995 27.79612174 0.6045142 28.89851193 -1 30 C-1.80308594 30.56976563 -2.60617187 31.13953125 -3.43359375 31.7265625 C-8.38753937 35.07913817 -8.38753937 35.07913817 -11.0859375 34.73046875 C-14.36981216 33.47723495 -16.42070749 31.19720451 -17.9375 28.0625 C-18.97638324 25.74765429 -18.97638324 25.74765429 -21.5625 23.6875 C-24.63375042 20.30124954 -25 18.54604279 -25 14 C-23.9287022 8.24177431 -21.36872888 4.7127438 -16.74609375 1.1953125 C-11.09295016 -2.67462472 -6.34751047 -2.4943891 0 0 Z " fill="#FAFBFC" transform="translate(842,291)"/>
<path d="M0 0 C2.18276396 1.2909257 3.7387113 2.67195227 5.5 4.48828125 C7.06599354 6.2194676 7.06599354 6.2194676 9.875 7.5 C12 9 12 9 12.7890625 11.76171875 C13.34905689 20.35866961 5.23606648 28.72601502 0 35 C-4.99086237 34.46499178 -8.86943263 32.81745006 -13.1875 30.375 C-13.80302734 30.05660156 -14.41855469 29.73820312 -15.05273438 29.41015625 C-19.77572783 26.75954887 -21.42710473 24.11190963 -23 19 C-23.74363447 12.81662848 -21.44965001 8.42783357 -17.765625 3.62890625 C-12.91007943 -0.85065681 -6.24035508 -1.04902521 0 0 Z " fill="#FBFCFD" transform="translate(762,216)"/>
<path d="M0 0 C1.86425457 0.61190207 1.86425457 0.61190207 3.875 -0.1875 C4.514375 -0.31125 5.15375 -0.435 5.8125 -0.5625 C7.40869141 0.546875 7.40869141 0.546875 8.8125 2.4375 C9.20068359 5.1171875 9.20068359 5.1171875 9.2109375 8.3125 C9.21673828 10.03726563 9.21673828 10.03726563 9.22265625 11.796875 C9.21105469 12.99828125 9.19945312 14.1996875 9.1875 15.4375 C9.19910156 16.63890625 9.21070313 17.8403125 9.22265625 19.078125 C9.21878906 20.22796875 9.21492187 21.3778125 9.2109375 22.5625 C9.20755371 23.61695313 9.20416992 24.67140625 9.20068359 25.7578125 C8.8125 28.4375 8.8125 28.4375 7.50708008 30.27758789 C4.65486386 32.22988284 1.4597153 31.92256269 -1.875 31.875 C-2.95539551 31.86472778 -2.95539551 31.86472778 -4.05761719 31.85424805 C-11.27727676 31.63608948 -15.57829488 30.18051051 -20.625 24.875 C-23.38545638 20.56868805 -23.72743302 16.43898482 -23.1875 11.4375 C-21.47088189 7.10508286 -19.58701534 3.70507006 -15.390625 1.48828125 C-10.17932463 -0.48159029 -5.55037847 -1.42724018 0 0 Z " fill="#0D0F1E" transform="translate(613.1875,724.5625)"/>
<path d="M0 0 C3.73584906 1.47169811 3.73584906 1.47169811 5 4 C6.00799748 9.91109632 6.145143 15.95341957 6.25 21.9375 C6.27578125 23.20464844 6.3015625 24.47179687 6.328125 25.77734375 C6 29 6 29 4.9375 30.88671875 C-0.11575698 33.79030391 -8.66203924 33.62621709 -14.33203125 32.5625 C-19.00378314 30.7064541 -23.72451471 27.62906151 -25.95703125 23.02734375 C-27.63932776 17.44920269 -26.68162041 13.39430251 -24.28125 8.171875 C-21.93539304 4.19536138 -19.30065772 2.43355257 -15 1 C-12.81295424 0.95542327 -10.62465053 0.9609001 -8.4375 1 C-4.05775867 1.23962002 -4.05775867 1.23962002 0 0 Z " fill="#FBFCFD" transform="translate(617,175)"/>
<path d="M0 0 C2.28515625 -0.2734375 2.28515625 -0.2734375 5 0 C6.80859375 1.8359375 6.80859375 1.8359375 8.4375 4.375 C9.02660156 5.2825 9.61570312 6.19 10.22265625 7.125 C10.80917969 8.07375 11.39570312 9.0225 12 10 C12.86431641 11.36125 12.86431641 11.36125 13.74609375 12.75 C18.55385458 20.49775846 18.55385458 20.49775846 19 24 C16.47846099 27.2004149 13.47685037 28.96477052 10 31 C9.236875 31.70125 8.47375 32.4025 7.6875 33.125 C4.21134388 35.5502252 1.16997967 36.32019487 -3 36 C-7.97014134 34.53675115 -13.0403891 32.38022414 -16 28 C-17.79751012 23.46128694 -18.50784765 19.46090864 -17 14.75 C-15.17008425 10.72097497 -12.72121937 8.43310497 -9 6 C-7.7625 5.649375 -6.525 5.29875 -5.25 4.9375 C-1.90503611 4.34843537 -1.90503611 4.34843537 -0.5625 1.875 C-0.376875 1.25625 -0.19125 0.6375 0 0 Z " fill="#0D0F1E" transform="translate(765,678)"/>
<path d="M0 0 C5.1874876 3.25489418 8.00624986 7.21132771 10 13 C10.375 16.375 10.375 16.375 10 19 C8 21 8 21 4.625 21.125 C1 20 1 20 -0.20703125 18.1796875 C-1.1875 16 -1.1875 16 -1.98046875 13.8125 C-2.8565946 11.79018186 -2.8565946 11.79018186 -5.11328125 11.25 C-5.73589844 11.1675 -6.35851562 11.085 -7 11 C-7.02578125 11.94101562 -7.0515625 12.88203125 -7.078125 13.8515625 C-7.65584651 26.53517558 -7.65584651 26.53517558 -12 31 C-15.47366043 33.89471702 -18.42537952 34.48571731 -22.94921875 34.28125 C-27.9304003 33.59811653 -31.20400129 31.72678144 -34.875 28.375 C-37.43840979 24.3037021 -38.3408829 20.80732294 -38 16 C-37.19921875 13.7734375 -37.19921875 13.7734375 -36 12 C-32.875 11.25 -32.875 11.25 -30 11 C-28 14 -28 14 -27 17.5625 C-26.29022994 21.03073325 -26.29022994 21.03073325 -24 23 C-21.41645782 23.16687448 -21.41645782 23.16687448 -19 23 C-18.97421875 22.13117187 -18.9484375 21.26234375 -18.921875 20.3671875 C-18.34189827 8.58311484 -18.34189827 8.58311484 -14 4 C-9.18134731 0.67283505 -5.92697553 -0.59269755 0 0 Z " fill="#0D0F1E" transform="translate(377,551)"/>
<path d="M0 0 C0.804375 0.12375 1.60875 0.2475 2.4375 0.375 C4.65905195 3.70732793 4.96452705 4.510135 4.4375 8.375 C3.25875208 10.84012064 1.89481486 13.05240445 0.4375 15.375 C2.70832689 16.18909386 2.70832689 16.18909386 5.4375 16.375 C7.87648749 15.01911293 7.87648749 15.01911293 10.0625 13 C14.36175756 9.31701827 17.47801586 7.8828483 23.30859375 7.96875 C27.35886981 8.74164672 29.85775671 11.29156013 32.4375 14.375 C35.01651244 18.72708349 36.04601291 22.24042735 35.14453125 27.3125 C33.77757741 31.30007806 31.43338365 34.44424425 28.4375 37.375 C25.8125 38.625 25.8125 38.625 23.4375 38.375 C21.125 36.4375 21.125 36.4375 19.4375 34.375 C20.0975 32.395 20.7575 30.415 21.4375 28.375 C22.0975 28.375 22.7575 28.375 23.4375 28.375 C24.12243373 25.51721967 24.12243373 25.51721967 24.4375 22.375 C23.7775 21.385 23.1175 20.395 22.4375 19.375 C18.29054203 19.88264486 16.53227268 20.92860582 13.6875 23.9375 C10.73247699 26.64720035 8.86018745 27.91258565 4.8125 28.0625 C-0.43453962 27.61921562 -3.64916897 25.2223541 -7.375 21.625 C-9.14136045 18.27821178 -9.79930635 15.11654031 -9.5625 11.375 C-7.94943687 6.5358106 -5.46966727 0.80043911 0 0 Z " fill="#FBFCFD" transform="translate(350.5625,329.625)"/>
<path d="M0 0 C2.84351856 4.26527784 2.2200061 7.78574628 2.06201172 12.80761719 C2.01574343 14.44340139 1.98311333 16.07958204 1.95751953 17.71582031 C1.90897407 20.76968039 1.83187475 23.82186427 1.75 26.875 C1.73606201 27.87370117 1.72212402 28.87240234 1.70776367 29.90136719 C1.50403671 35.91308197 0.8982318 39.36486237 -3 44 C-3.598125 44.804375 -4.19625 45.60875 -4.8125 46.4375 C-7 48 -7 48 -10.75 47.75 C-11.8225 47.5025 -12.895 47.255 -14 47 C-14.8125 45.3125 -14.8125 45.3125 -15 43 C-12.625 40.3125 -12.625 40.3125 -10 38 C-8.76300298 36.96383914 -8.76300298 36.96383914 -8.68359375 34.734375 C-9.10663258 31.07848391 -10.50863915 29.85928688 -13.0625 27.25 C-13.87589844 26.38503906 -14.68929687 25.52007813 -15.52734375 24.62890625 C-16.75130859 23.32759766 -16.75130859 23.32759766 -18 22 C-19.40134887 20.41879886 -20.77910802 18.81616524 -22.125 17.1875 C-22.70507812 16.50042969 -23.28515625 15.81335938 -23.8828125 15.10546875 C-25 13 -25 13 -24.8046875 10.36328125 C-24 8 -24 8 -22 6 C-18.82829493 6 -16.76148814 6.37806059 -14.2734375 8.41015625 C-12.79703332 9.89005902 -11.39291572 11.44126098 -10 13 C-9.80664062 12.14535156 -9.61328125 11.29070313 -9.4140625 10.41015625 C-9.15367187 9.30542969 -8.89328125 8.20070313 -8.625 7.0625 C-8.36976563 5.96035156 -8.11453125 4.85820313 -7.8515625 3.72265625 C-7.57054687 2.82417969 -7.28953125 1.92570313 -7 1 C-4.46578263 -0.26710868 -2.80561762 -0.28056176 0 0 Z " fill="#0D0F1E" transform="translate(722,704)"/>
<path d="M0 0 C1.8125 1.25 1.8125 1.25 2.8125 3.25 C3.0400015 5.12056791 3.22212811 6.99685958 3.375 8.875 C3.50068359 10.37933594 3.50068359 10.37933594 3.62890625 11.9140625 C3.68949219 12.68492187 3.75007812 13.45578125 3.8125 14.25 C4.4725 14.25 5.1325 14.25 5.8125 14.25 C6.06 13.6725 6.3075 13.095 6.5625 12.5 C8.05074784 9.82115389 9.38513634 8.13794951 11.8125 6.25 C15.0625 6 15.0625 6 17.8125 6.25 C19.02830625 8.25250441 19.84787181 9.63643521 19.7109375 12.01171875 C18.35067976 15.40053476 15.87379118 17.72543944 13.375 20.3125 C12.28330207 21.46562339 11.19216584 22.61927881 10.1015625 23.7734375 C9.55145508 24.3519043 9.00134766 24.93037109 8.43457031 25.52636719 C5.17635959 28.98858388 2.03493796 32.5571837 -1.12890625 36.10546875 C-3.54299873 38.62033928 -5.23442725 40.12486373 -8.74609375 40.5859375 C-16.59301345 40.69240859 -16.59301345 40.69240859 -19.875 38.25 C-20.308125 37.59 -20.74125 36.93 -21.1875 36.25 C-20.5703125 34.359375 -20.5703125 34.359375 -19.1875 32.25 C-16.3671875 31.203125 -16.3671875 31.203125 -13.0625 30.5 C-11.41894531 30.13648438 -11.41894531 30.13648438 -9.7421875 29.765625 C-8.89914062 29.59546875 -8.05609375 29.4253125 -7.1875 29.25 C-7.19273682 28.50838623 -7.19797363 27.76677246 -7.20336914 27.00268555 C-7.22413614 23.64763229 -7.2371593 20.29259256 -7.25 16.9375 C-7.25837891 15.77025391 -7.26675781 14.60300781 -7.27539062 13.40039062 C-7.27861328 12.28212891 -7.28183594 11.16386719 -7.28515625 10.01171875 C-7.29039307 8.98006592 -7.29562988 7.94841309 -7.30102539 6.88549805 C-7.1875 4.25 -7.1875 4.25 -6.1875 1.25 C-3.77648046 -0.4959107 -2.8647564 -0.98220219 0 0 Z " fill="#FAFBFC" transform="translate(706.1875,190.75)"/>
<path d="M0 0 C5.29333336 1.79595239 7.3036685 4.16014137 10 9 C10.4609375 12.62109375 10.4609375 12.62109375 10.375 16.4375 C10.35566406 18.32275391 10.35566406 18.32275391 10.3359375 20.24609375 C9.90685118 25.04088396 9.49634543 29.50365457 6 33 C3.37657074 32.79819775 1.54181625 32.32904822 -0.7109375 30.9609375 C-2.82279903 27.74834813 -1.77629512 24.41768935 -1.1875 20.8125 C-1.02411133 19.68811523 -1.02411133 19.68811523 -0.85742188 18.54101562 C-0.58651277 16.69176651 -0.29519943 14.84552739 0 13 C-2.8424854 11.42726432 -2.8424854 11.42726432 -6 11 C-6.19335938 12.20398438 -6.38671875 13.40796875 -6.5859375 14.6484375 C-6.84853605 16.22402877 -7.11158001 17.79954585 -7.375 19.375 C-7.50132812 20.1690625 -7.62765625 20.963125 -7.7578125 21.78125 C-7.88671875 22.54179687 -8.015625 23.30234375 -8.1484375 24.0859375 C-8.32125244 25.1385376 -8.32125244 25.1385376 -8.49755859 26.21240234 C-9 28 -9 28 -11 30 C-14.44165321 29.64700993 -16.06872538 28.95418308 -19 27 C-17.77419926 6.28819444 -17.77419926 6.28819444 -13.76171875 0.0859375 C-9.79433433 -2.35958992 -4.37278119 -0.74713745 0 0 Z " fill="#FAFBFC" transform="translate(663,179)"/>
<path d="M0 0 C5.65167748 6.64903233 6.20550656 14.77091824 6.265625 23.1875 C6 25 6 25 4 27 C1.38419521 26.6730244 -0.64078137 26.17960932 -3 25 C-3.60679968 22.72958206 -4.11204226 20.43153231 -4.5625 18.125 C-5.56623125 13.00559042 -5.56623125 13.00559042 -7 8 C-8.65 8.33 -10.3 8.66 -12 9 C-11.95399658 9.56509277 -11.90799316 10.13018555 -11.8605957 10.71240234 C-11.66178833 13.26564573 -11.486873 15.81997663 -11.3125 18.375 C-11.23966797 19.26445313 -11.16683594 20.15390625 -11.09179688 21.0703125 C-11.03701172 21.92109375 -10.98222656 22.771875 -10.92578125 23.6484375 C-10.86817627 24.43395996 -10.81057129 25.21948242 -10.7512207 26.02880859 C-10.83331787 26.67930176 -10.91541504 27.32979492 -11 28 C-14 30 -14 30 -16 29.75 C-18 29 -18 29 -21 27 C-21.71966533 24.43822835 -22.2558652 22.04832806 -22.6875 19.4375 C-22.8127002 18.71602783 -22.93790039 17.99455566 -23.06689453 17.2512207 C-23.91899857 12.09164381 -24.53189537 7.2303045 -24 2 C-21.26593722 -1.68314827 -17.87476248 -1.96578499 -13.5703125 -2.71875 C-8.82497224 -3.23799696 -3.94019909 -2.85324762 0 0 Z " fill="#0D0F1E" transform="translate(671,723)"/>
<path d="M0 0 C1.48251273 2.96502546 1.35770302 4.66143845 1 8 C-0.22041822 10.62286492 -1.56243917 13.12489417 -3.00390625 15.6328125 C-4.12731641 18.3025637 -4.02162784 19.34499113 -3 22 C-0.59979339 22.00739216 -0.59979339 22.00739216 2 21 C4.02180052 17.75114561 5.48620426 14.39202912 7.05859375 10.90625 C9 8 9 8 12.22265625 7.09375 C13.13917969 7.0628125 14.05570312 7.031875 15 7 C16.68359375 9.55859375 16.68359375 9.55859375 18 13 C17.18904092 15.74122671 16.42202048 17.62592252 15.0625 20.0625 C14.76537109 20.66126953 14.46824219 21.26003906 14.16210938 21.87695312 C11.53853399 26.85683738 8.1095748 30.4452126 3 33 C-3.56148584 33.80579651 -6.83111446 32.34545222 -12.21484375 28.60546875 C-14.97491951 26.12321243 -15.00156208 23.98123502 -15.3046875 20.33984375 C-15.23955803 15.43379834 -13.41603618 11.81558273 -11.125 7.5625 C-10.76019531 6.84384766 -10.39539063 6.12519531 -10.01953125 5.38476562 C-7.18136101 -0.08000216 -6.10317331 -1.72140786 0 0 Z " fill="#0D0F1E" transform="translate(485,691)"/>
<path d="M0 0 C4.8707689 5.75738351 9.40686748 14.33339703 9.125 22.0625 C8.33912329 26.24005512 6.2898922 28.89635722 3.1640625 31.70703125 C-0.79953406 34.07517288 -4.57293437 33.91619736 -9 33 C-15.83051832 29.64917969 -20.14711371 23.70832649 -23.33984375 16.9609375 C-24.3418819 13.98446916 -24.04322775 11.9210377 -23 9 C-20 7 -20 7 -18.03515625 7.00390625 C-14.9127921 8.53212671 -14.04503015 10.91304172 -12.4375 13.9375 C-9.99077367 18.64748594 -9.99077367 18.64748594 -6 22 C-3.84725052 21.69159401 -3.84725052 21.69159401 -2 21 C-2.65939894 17.66466817 -3.96151085 15.13810226 -5.625 12.1875 C-8.01687325 7.52782762 -8.59413261 4.99494884 -7 0 C-4.22953523 -1.38523239 -2.91127728 -0.96010208 0 0 Z " fill="#FBFCFD" transform="translate(498,204)"/>
<path d="M0 0 C3.125 0.375 3.125 0.375 6 1 C5.37234903 29.71589895 1.82519625 57.31601534 -6 85 C-7.98 85 -9.96 85 -12 85 C-13.16884706 81.5556102 -12.81154775 79.33001116 -11.890625 75.84375 C-11.63176514 74.83062744 -11.37290527 73.81750488 -11.10620117 72.77368164 C-10.82365479 71.6933667 -10.5411084 70.61305176 -10.25 69.5 C-7.46138272 58.3994211 -5.34132013 47.36481914 -4 36 C-3.9079126 35.22575684 -3.8158252 34.45151367 -3.72094727 33.65380859 C-2.86495634 25.85859501 -2.67364319 18.05415985 -2.48242188 10.21875 C-2.44826172 9.1875 -2.41410156 8.15625 -2.37890625 7.09375 C-2.3538501 6.16240234 -2.32879395 5.23105469 -2.30297852 4.27148438 C-2 2 -2 2 0 0 Z " fill="#0D0F1E" transform="translate(886,454)"/>
<path d="M0 0 C3.125 0.375 3.125 0.375 6 1 C5.94779297 2.69576172 5.94779297 2.69576172 5.89453125 4.42578125 C5.41114853 27.53294023 8.93984336 49.66461848 14.32080078 72.07861328 C15.31750769 76.36567109 16.17449706 80.67711424 17 85 C15.02 85 13.04 85 11 85 C8.54461118 79.67643235 6.90621118 74.4509084 5.5625 68.75 C5.35077148 67.85321533 5.13904297 66.95643066 4.92089844 66.0324707 C1.0588915 49.00229391 -1.53866095 31.47070925 -2 14 C-2.03996094 12.82566406 -2.07992188 11.65132813 -2.12109375 10.44140625 C-2.24254281 4.37609735 -2.24254281 4.37609735 -2 2 C-1.34 1.34 -0.68 0.68 0 0 Z " fill="#0D0F1E" transform="translate(340,454)"/>
<path d="M0 0 C2.375 -0.1875 2.375 -0.1875 5 0 C7 3 7 3 6.73974609 5.13110352 C6.38517334 6.36751587 6.38517334 6.36751587 6.0234375 7.62890625 C5.76651123 8.56806885 5.50958496 9.50723145 5.24487305 10.47485352 C4.95781494 11.49377686 4.67075684 12.5127002 4.375 13.5625 C-1.07790654 34.17920391 -3.64482027 54.69533993 -4 76 C-6.31 76 -8.62 76 -11 76 C-12.22832939 70.68644687 -11.83821006 65.95750887 -11.375 60.5625 C-11.28581299 59.52279053 -11.19662598 58.48308105 -11.10473633 57.41186523 C-9.28123839 38.00453522 -6.36648229 18.47634436 0 0 Z " fill="#57CAE7" transform="translate(350,379)"/>
<path d="M0 0 C2.875 -0.125 2.875 -0.125 6 0 C8.63303283 2.63303283 8.80397275 4.68767 9.62109375 8.31640625 C9.76570541 8.95617401 9.91031708 9.59594177 10.05931091 10.25509644 C10.52895648 12.35545182 10.98472995 14.45844571 11.4375 16.5625 C11.6718576 17.63952682 11.6718576 17.63952682 11.91094971 18.73831177 C16.00134499 37.65566621 18.22866402 56.66340483 19 76 C16.69 76 14.38 76 12 76 C10.39936406 72.79872812 10.74779644 69.27439905 10.625 65.75 C9.80333716 47.68032218 6.62321659 30.22832271 2.58544922 12.62695312 C1.65066954 8.43252887 0.82006799 4.21814292 0 0 Z " fill="#57CAE7" transform="translate(873,379)"/>
<path d="M0 0 C3.99105028 0.68126036 6.02291459 3.12555409 8.68359375 5.96875 C9.47092896 6.78980225 9.47092896 6.78980225 10.27416992 7.62744141 C11.78554566 9.22347294 13.27069704 10.83947119 14.74609375 12.46875 C15.45507812 13.24992188 16.1640625 14.03109375 16.89453125 14.8359375 C19.9296545 18.49803456 19.9296545 18.49803456 20.74609375 20.46875 C20.45633769 22.47552665 20.12609273 24.47708942 19.74609375 26.46875 C15.16287993 26.55579 10.57987841 26.60915632 5.99609375 26.65625 C4.04316406 26.69395508 4.04316406 26.69395508 2.05078125 26.73242188 C0.80039062 26.74208984 -0.45 26.75175781 -1.73828125 26.76171875 C-2.89038086 26.7774292 -4.04248047 26.79313965 -5.22949219 26.80932617 C-8.52149411 26.4386172 -9.86085702 25.69490202 -12.25390625 23.46875 C-11.94140625 21.09375 -11.94140625 21.09375 -11.25390625 18.46875 C-8.09150043 16.36047945 -6.74733156 16.13057535 -3.06640625 15.84375 C-2.16535156 15.76898437 -1.26429688 15.69421875 -0.3359375 15.6171875 C0.35113281 15.56820312 1.03820312 15.51921875 1.74609375 15.46875 C1.22917969 14.94925781 0.71226562 14.42976562 0.1796875 13.89453125 C-0.80837891 12.84845703 -0.80837891 12.84845703 -1.81640625 11.78125 C-2.47769531 11.09675781 -3.13898437 10.41226563 -3.8203125 9.70703125 C-5.25390625 7.46875 -5.25390625 7.46875 -5.09375 4.82421875 C-4.01891558 1.80968314 -3.18193461 0.66175416 0 0 Z " fill="#0D0F1E" transform="translate(867.25390625,553.53125)"/>
<path d="M0 0 C0.72445312 0.0928125 1.44890625 0.185625 2.1953125 0.28125 C3.1853125 2.26125 4.1753125 4.24125 5.1953125 6.28125 C4.69 6.84714844 4.1846875 7.41304688 3.6640625 7.99609375 C3.014375 8.72957031 2.3646875 9.46304687 1.6953125 10.21875 C1.045625 10.94964844 0.3959375 11.68054688 -0.2734375 12.43359375 C-1.9110376 14.0096255 -1.9110376 14.0096255 -1.8046875 15.28125 C-0.89976562 15.21164062 -0.89976562 15.21164062 0.0234375 15.140625 C6.53520517 14.84654517 6.53520517 14.84654517 9.7578125 16.96875 C11.42832708 19.65609955 11.54069454 21.17281165 11.1953125 24.28125 C5.51698029 26.8725089 0.27766483 26.61200565 -5.8671875 26.59375 C-7.50010742 26.61791992 -7.50010742 26.61791992 -9.16601562 26.64257812 C-10.73706055 26.64354492 -10.73706055 26.64354492 -12.33984375 26.64453125 C-13.76889038 26.64900269 -13.76889038 26.64900269 -15.22680664 26.65356445 C-18.20606603 26.22328028 -19.58251769 25.260692 -21.8046875 23.28125 C-20.2717655 17.83086067 -16.58503515 14.30392763 -12.8046875 10.28125 C-11.97710938 9.37761719 -11.14953125 8.47398437 -10.296875 7.54296875 C-9.43320312 6.63160156 -8.56953125 5.72023438 -7.6796875 4.78125 C-6.87273438 3.9253125 -6.06578125 3.069375 -5.234375 2.1875 C-2.8046875 0.28125 -2.8046875 0.28125 0 0 Z " fill="#FAFBFC" transform="translate(865.8046875,333.71875)"/>
<path d="M0 0 C0.625 2.8125 0.625 2.8125 1 6 C0.01 7.485 0.01 7.485 -1 9 C0.051875 8.773125 1.10375 8.54625 2.1875 8.3125 C6.48043713 7.96061991 7.74327158 8.28605965 11 11 C13.33772514 13.90200363 13.96474659 15.72300894 14.4375 19.4375 C13.91894272 23.66003788 12.66649168 25.7240245 10 29 C6.53001271 31.31332486 5.07490752 31.33957563 1 31 C-2 29 -2 29 -2.5625 26.625 C-2 24 -2 24 1 21.6875 C1.99 21.130625 2.98 20.57375 4 20 C1.80383851 18.70346794 1.80383851 18.70346794 -1.8125 19.125 C-5.68774892 19.17423184 -7.89849934 18.46295641 -11 16 C-13 13 -13 13 -12.875 9.625 C-11.91548627 5.64987169 -10.91377836 3.83284007 -8 1 C-4.61376211 -0.8170057 -3.70785988 -1.23595329 0 0 Z " fill="#FBFCFD" transform="translate(451,232)"/>
<path d="M0 0 C2.5625 2.1875 2.5625 2.1875 4 5 C4.25 8.3125 4.25 8.3125 4 11 C-0.27343092 11.36629408 -2.48812804 10.40814077 -6 8 C-5.505 9.010625 -5.01 10.02125 -4.5 11.0625 C-2.90134829 14.86698364 -2.38473262 17.84694521 -3 22 C-5.4375 24.875 -5.4375 24.875 -8 27 C-8.33 27.33 -8.66 27.66 -9 28 C-14.52131663 28.67607959 -17.91554766 27.55276593 -22.390625 24.5 C-24 23 -24 23 -25.125 19.875 C-25 17 -25 17 -23 14 C-21.125 13.0625 -21.125 13.0625 -19 13 C-16.9375 14.875 -16.9375 14.875 -15 17 C-14.01 17.33 -13.02 17.66 -12 18 C-12.48533203 17.03900391 -12.48533203 17.03900391 -12.98046875 16.05859375 C-16.14445023 9.18794142 -16.14445023 9.18794142 -15.73828125 5.84765625 C-14.68590969 3.21394329 -13.55616528 1.35938646 -11.15625 -0.19140625 C-7.37564346 -1.6091337 -3.83200082 -1.0828039 0 0 Z " fill="#0D0F1E" transform="translate(452,668)"/>
<path d="M0 0 C0.82210882 3.02563 1.3073213 4.938607 1 8 C-0.95504735 11.11819574 -3.52718784 13.42397489 -6.25 15.875 C-6.94480469 16.53757812 -7.63960938 17.20015625 -8.35546875 17.8828125 C-11.1443568 20.51646494 -13.80137576 22.86758384 -17 25 C-20.03452373 24.62068453 -21.37561021 23.74959319 -24 22 C-23.47189523 18.08660822 -22.54980164 16.01570491 -19.875 13.125 C-19.24464844 12.44308594 -18.61429687 11.76117187 -17.96484375 11.05859375 C-16.99224609 10.03958984 -16.99224609 10.03958984 -16 9 C-15.40316406 8.35160156 -14.80632812 7.70320312 -14.19140625 7.03515625 C-5.70730728 -1.90243576 -5.70730728 -1.90243576 0 0 Z " fill="#0D0F1E" transform="translate(424,643)"/>
<path d="M0 0 C3.1883538 0.39574415 4.095228 1.21476826 6.30541992 3.49926758 C6.95704102 4.16249023 7.60866211 4.82571289 8.2800293 5.5090332 C8.94454102 6.21092773 9.60905273 6.91282227 10.29370117 7.63598633 C10.96981445 8.3262793 11.64592773 9.01657227 12.3425293 9.7277832 C19.48524812 17.08371751 19.48524812 17.08371751 19.85620117 20.88598633 C19.60620117 23.32348633 19.60620117 23.32348633 17.60620117 25.32348633 C11.01019419 24.97982882 7.09868236 19.63273943 2.60620117 15.32348633 C1.7940918 14.59774414 0.98198242 13.87200195 0.14526367 13.12426758 C-0.58950195 12.44750977 -1.32426758 11.77075195 -2.08129883 11.07348633 C-2.74516602 10.47020508 -3.4090332 9.86692383 -4.09301758 9.24536133 C-5.39379883 7.32348633 -5.39379883 7.32348633 -5.22583008 4.71411133 C-4.13383426 1.57654586 -3.35490333 0.45336531 0 0 Z " fill="#FBFCFD" transform="translate(416.393798828125,258.676513671875)"/>
<path d="M0 0 C1.9375 2.25 1.9375 2.25 3 5 C2.33719617 7.43028072 1.7989028 9.2010972 0 11 C-2.8125 11.3125 -2.8125 11.3125 -6 11 C-8.375 9 -8.375 9 -10 7 C-9.1875 3.5625 -9.1875 3.5625 -8 0 C-4.62848454 -1.12383849 -3.31972498 -1.16190374 0 0 Z " fill="#57CAE7" transform="translate(850,614)"/>
<path d="M0 0 C1.9375 1.25 1.9375 1.25 3.9375 4.25 C4.1875 6.8125 4.1875 6.8125 3.9375 9.25 C1.9375 11.25 1.9375 11.25 -1.5 11.5 C-5.0625 11.25 -5.0625 11.25 -8.0625 9.25 C-8.54696349 6.18173124 -8.32093472 4.69303096 -6.75 2 C-4.54345593 -0.28826792 -3.08023666 -1.12008606 0 0 Z " fill="#57CAE7" transform="translate(385.0625,612.75)"/>
<path d="M0 0 C2.625 0.4375 2.625 0.4375 5 2.625 C6.625 5.4375 6.625 5.4375 6.5 8.125 C5.625 10.4375 5.625 10.4375 3.625 12.4375 C0.43348491 12.8574362 -0.95991075 12.70674708 -3.6875 10.9375 C-4.244375 10.4425 -4.80125 9.9475 -5.375 9.4375 C-4.41679104 0.8136194 -4.41679104 0.8136194 0 0 Z " fill="#0D0F1E" transform="translate(395.375,299.5625)"/>
<path d="M0 0 C2.99773701 1.15297577 4.00312605 2.0687521 5.4375 4.9375 C5.19675978 8.30786311 4.84951979 9.52548021 2.4375 11.9375 C-0.52805007 12.32770396 -2.17605053 12.12550244 -4.875 10.8125 C-6.5625 8.9375 -6.5625 8.9375 -7.0625 5.9375 C-6.5625 2.9375 -6.5625 2.9375 -4.875 1 C-2.5625 -0.0625 -2.5625 -0.0625 0 0 Z " fill="#57CAE7" transform="translate(809.5625,657.0625)"/>
<path d="M0 0 C3.0625 0.3125 3.0625 0.3125 4.9375 1.4375 C6.60913625 4.22356042 6.52626624 6.13238862 6.0625 9.3125 C4.3125 11.25 4.3125 11.25 2.0625 12.3125 C-0.79402585 12.22323357 -1.96207788 11.29390052 -4.25 9.5625 C-5.9375 7.3125 -5.9375 7.3125 -5.8125 4.6875 C-4.5308653 1.20877724 -3.72452907 0.3962265 0 0 Z " fill="#0D0F1E" transform="translate(754.9375,225.6875)"/>
<path d="M0 0 C2.15502531 3.23253796 2.46856135 4.25150923 2 8 C0.875 9.875 0.875 9.875 -1 11 C-4.16835865 10.86798506 -6.26257683 10.47575689 -8.9375 8.75 C-10 7 -10 7 -9.75 4.4375 C-9 2 -9 2 -8 0 C-4.67212881 -1.1092904 -3.3006216 -1.01557588 0 0 Z " fill="#57CAE7" transform="translate(610,735)"/>
<path d="M0 0 C1.875 2.25 1.875 2.25 3 5 C2.33719617 7.43028072 1.7989028 9.2010972 0 11 C-3.375 11.375 -3.375 11.375 -7 11 C-9.0625 8.8125 -9.0625 8.8125 -10 6 C-9.34964183 2.89273317 -8.69220486 1.5076169 -6.125 -0.375 C-3.52087344 -1.14091958 -2.45211704 -1.18650825 0 0 Z " fill="#0D0F1E" transform="translate(837,300)"/>
<path d="M0 0 C1.8125 1.6875 1.8125 1.6875 3 4 C2.57446809 9.42553191 2.57446809 9.42553191 1 11 C-2.47256915 11.30867281 -4.3872288 11.38701339 -7.375 9.5 C-7.91125 9.005 -8.4475 8.51 -9 8 C-8.125 2.25 -8.125 2.25 -7 0 C-3.83901159 -1.0536628 -2.99112741 -1.21514551 0 0 Z " fill="#0D0F1E" transform="translate(801,259)"/>
<path d="M0 0 C2.31332486 3.46998729 2.33957563 4.92509248 2 9 C0 12 0 12 -2.3125 12.5 C-6.06036772 11.80272228 -7.54362855 9.80728166 -10 7 C-8.15164971 1.59712992 -5.95281586 -0.76318152 0 0 Z " fill="#57CAE7" transform="translate(767,692)"/>
<path d="M0 0 C2.31282587 3.46923881 2.42478586 4.92205575 2 9 C0.8125 10.9375 0.8125 10.9375 -1 12 C-4.48032201 11.73897585 -6.05096298 10.96602468 -9 9 C-8.67 6.36 -8.34 3.72 -8 1 C-5.01726077 0.00575359 -3.10494126 -0.31845551 0 0 Z " fill="#0D0F1E" transform="translate(610,186)"/>
<path d="M0 0 C2 0.9375 2 0.9375 3.25 4 C3.4975 4.969375 3.745 5.93875 4 6.9375 C3.01 7.5975 2.02 8.2575 1 8.9375 C-0.98 7.9475 -2.96 6.9575 -5 5.9375 C-4.625 3.5 -4.625 3.5 -4 0.9375 C-2 -0.0625 -2 -0.0625 0 0 Z " fill="#FBFCFD" transform="translate(409,252.0625)"/>
<path d="M0 0 C1.2065625 0.0309375 1.2065625 0.0309375 2.4375 0.0625 C2.7675 2.3725 3.0975 4.6825 3.4375 7.0625 C1.125 7.6875 1.125 7.6875 -1.5625 8.0625 C-2.5525 7.4025 -3.5425 6.7425 -4.5625 6.0625 C-3.48963568 0.08511307 -3.48963568 0.08511307 0 0 Z " fill="#0D0F1E" transform="translate(428.5625,635.9375)"/>
</svg>
